<svg width="25" height="25" viewBox="0 0 25 25" fill="none" xmlns="http://www.w3.org/2000/svg">
<path fill-rule="evenodd" clip-rule="evenodd" d="M5 6.25C3.61929 6.25 2.5 7.36929 2.5 8.75V18.75C2.5 20.1307 3.61929 21.25 5 21.25H20C21.3807 21.25 22.5 20.1307 22.5 18.75V8.75C22.5 7.36929 21.3807 6.25 20 6.25H18.0178C17.6862 6.25 17.3683 6.1183 17.1339 5.88388L15.7322 4.48223C15.2634 4.01339 14.6275 3.75 13.9645 3.75H11.0355C10.3725 3.75 9.73661 4.01339 9.26777 4.48223L7.86612 5.88388C7.6317 6.1183 7.31375 6.25 6.98223 6.25H5ZM12.5 17.5C14.5711 17.5 16.25 15.8211 16.25 13.75C16.25 11.6789 14.5711 10 12.5 10C10.4289 10 8.75 11.6789 8.75 13.75C8.75 15.8211 10.4289 17.5 12.5 17.5Z" fill="#4D0013"/>
</svg>
