<svg width="24" height="24" viewBox="0 0 24 24" fill="none" xmlns="http://www.w3.org/2000/svg">
<path opacity="0.5" d="M12 11.25C11.0054 11.25 10.0516 11.6451 9.34835 12.3483C8.64509 13.0516 8.25 14.0054 8.25 15C8.25 15.9946 8.64509 16.9484 9.34835 17.6517C10.0516 18.3549 11.0054 18.75 12 18.75C12.9946 18.75 13.9484 18.3549 14.6517 17.6517C15.3549 16.9484 15.75 15.9946 15.75 15C15.75 14.0054 15.3549 13.0516 14.6517 12.3483C13.9484 11.6451 12.9946 11.25 12 11.25Z" fill="#4D0013"/>
<path d="M12.0013 5.25C12.2002 5.25 12.391 5.32902 12.5316 5.46967C12.6723 5.61032 12.7513 5.80109 12.7513 6V6.785C13.4813 6.854 14.1493 7.02 14.7573 7.255L15.0943 6.643C15.1418 6.55672 15.2059 6.48065 15.2829 6.41913C15.3598 6.35761 15.4481 6.31185 15.5427 6.28446C15.6373 6.25706 15.7364 6.24858 15.8343 6.25948C15.9322 6.27038 16.027 6.30046 16.1133 6.348C16.1996 6.39554 16.2757 6.45961 16.3372 6.53654C16.3987 6.61348 16.4445 6.70178 16.4719 6.7964C16.4992 6.89103 16.5077 6.99012 16.4968 7.08802C16.4859 7.18592 16.4558 7.28072 16.4083 7.367L16.0973 7.932C16.6696 8.2972 17.1972 8.72813 17.6693 9.216L18.0183 8.924C18.1711 8.79643 18.3683 8.73477 18.5665 8.75259C18.7647 8.7704 18.9477 8.86624 19.0753 9.019C19.2029 9.17176 19.2645 9.36895 19.2467 9.56717C19.2289 9.7654 19.1331 9.94843 18.9803 10.076L18.6323 10.366L18.6893 10.445C18.9663 10.837 19.1823 11.199 19.3423 11.491L19.6663 11.329C19.7545 11.2841 19.8507 11.2571 19.9494 11.2496C20.0481 11.242 20.1474 11.2541 20.2414 11.2851C20.3354 11.3161 20.4223 11.3654 20.4972 11.4301C20.572 11.4949 20.6333 11.5738 20.6775 11.6624C20.7218 11.7509 20.748 11.8474 20.7548 11.9461C20.7615 12.0449 20.7487 12.144 20.717 12.2378C20.6852 12.3315 20.6353 12.4181 20.5699 12.4924C20.5046 12.5668 20.4252 12.6275 20.3363 12.671L19.3363 13.171C19.2437 13.2171 19.1425 13.2436 19.0392 13.2487C18.9358 13.2539 18.8325 13.2376 18.7358 13.2008C18.639 13.1641 18.5509 13.1078 18.477 13.0353C18.4031 12.9629 18.345 12.876 18.3063 12.78L18.3053 12.779V12.777L18.2973 12.761L18.2633 12.682C18.0381 12.2027 17.7711 11.7443 17.4653 11.312C16.8723 10.474 15.9793 9.507 14.7463 8.889C13.8945 8.46251 12.9539 8.24355 12.0013 8.25C11.0486 8.24386 10.108 8.46317 9.25631 8.89C8.02331 9.507 7.13031 10.474 6.53831 11.311C6.24431 11.727 6.03031 12.101 5.89131 12.371C5.82531 12.4991 5.76328 12.6291 5.70531 12.761L5.69831 12.778C5.65986 12.8744 5.60181 12.9618 5.52784 13.0346C5.45387 13.1074 5.36559 13.1641 5.26859 13.2011C5.17158 13.238 5.06797 13.2544 4.96429 13.2492C4.86062 13.2441 4.75916 13.2174 4.66631 13.171L3.66631 12.671C3.57741 12.6275 3.49801 12.5668 3.43267 12.4924C3.36734 12.4181 3.31737 12.3315 3.28565 12.2378C3.25393 12.144 3.24108 12.0449 3.24785 11.9461C3.25461 11.8474 3.28086 11.7509 3.32507 11.6624C3.36929 11.5738 3.43059 11.4949 3.50546 11.4301C3.58032 11.3654 3.66726 11.3161 3.76127 11.2851C3.85527 11.2541 3.95448 11.242 4.05318 11.2496C4.15187 11.2571 4.2481 11.2841 4.33631 11.329L4.66031 11.491C4.87406 11.102 5.11116 10.7263 5.37031 10.366L5.02331 10.076C4.94767 10.0129 4.8852 9.93552 4.83946 9.84828C4.79372 9.76103 4.76562 9.66563 4.75675 9.56753C4.74788 9.46942 4.75843 9.37053 4.78778 9.2765C4.81713 9.18247 4.86471 9.09514 4.92781 9.0195C4.99091 8.94386 5.06829 8.88139 5.15554 8.83565C5.24278 8.78991 5.33818 8.76181 5.43628 8.75294C5.53439 8.74407 5.63328 8.75462 5.72731 8.78397C5.82134 8.81332 5.90867 8.8609 5.98431 8.924L6.33431 9.216C6.80642 8.72813 7.33401 8.2972 7.90631 7.932L7.59431 7.367C7.54677 7.28072 7.51669 7.18592 7.50579 7.08802C7.49489 6.99012 7.50338 6.89103 7.53077 6.7964C7.55816 6.70178 7.60392 6.61348 7.66544 6.53654C7.72696 6.45961 7.80303 6.39554 7.88931 6.348C7.97559 6.30046 8.07039 6.27038 8.16829 6.25948C8.26619 6.24858 8.36528 6.25706 8.45991 6.28446C8.55453 6.31185 8.64283 6.35761 8.71977 6.41913C8.79671 6.48065 8.86077 6.55672 8.90831 6.643L9.24531 7.255C9.88917 7.0068 10.5642 6.84864 11.2513 6.785V6C11.2513 5.80109 11.3303 5.61032 11.471 5.46967C11.6116 5.32902 11.8024 5.25 12.0013 5.25Z" fill="#4D0013"/>
<path d="M12 11.25C11.0054 11.25 10.0516 11.6451 9.34835 12.3483C8.64509 13.0516 8.25 14.0054 8.25 15C8.25 15.9946 8.64509 16.9484 9.34835 17.6517C10.0516 18.3549 11.0054 18.75 12 18.75C12.9946 18.75 13.9484 18.3549 14.6517 17.6517C15.3549 16.9484 15.75 15.9946 15.75 15C15.75 14.0054 15.3549 13.0516 14.6517 12.3483C13.9484 11.6451 12.9946 11.25 12 11.25ZM9.75 15C9.75 14.4033 9.98705 13.831 10.409 13.409C10.831 12.9871 11.4033 12.75 12 12.75C12.5967 12.75 13.169 12.9871 13.591 13.409C14.0129 13.831 14.25 14.4033 14.25 15C14.25 15.5967 14.0129 16.169 13.591 16.591C13.169 17.0129 12.5967 17.25 12 17.25C11.4033 17.25 10.831 17.0129 10.409 16.591C9.98705 16.169 9.75 15.5967 9.75 15Z" fill="#4D0013"/>
</svg>
